<?xml version="1.0" encoding="utf-8"?>
<!-- Generator: Adobe Illustrator 18.0.0, SVG Export Plug-In . SVG Version: 6.00 Build 0)  -->
<!DOCTYPE svg PUBLIC "-//W3C//DTD SVG 1.1//EN" "http://www.w3.org/Graphics/SVG/1.1/DTD/svg11.dtd">
<svg version="1.1" id="Layer_1" xmlns="http://www.w3.org/2000/svg" xmlns:xlink="http://www.w3.org/1999/xlink" x="0px" y="0px"
	 viewBox="0 0 950 313" enable-background="new 0 0 950 313" xml:space="preserve">
<g>
	<g>
		<defs>
			<rect id="SVGID_1_" y="0" width="950" height="313"/>
		</defs>
		<clipPath id="SVGID_2_">
			<use xlink:href="#SVGID_1_"  overflow="visible"/>
		</clipPath>
		<path clip-path="url(#SVGID_2_)" fill-rule="evenodd" clip-rule="evenodd" fill="#555555" d="M129.9,17.9c0,5.6,0,3.1,3.8,11.2
			c0.6,0.6,0.6,2.5,0.6,5c0.6,10.5,0.6,11.8,0.6,13c0,5-6.9,4.3-7.6,4.3c-5,0-6.3,0-11.4-6.2c4.4-3.1,10.7-14.3,10.7-19.2
			C126.7,11,107.8,3.6,99,3.6c-15.1,0-40.4,19.2-51.7,24.8C37.2,34,27.7,40.8,17,45.8C15.1,47,0,50.1,0,54.4
			c0,8.7,18.3,8.1,20.2,8.1c4.4,3.1,8.8,6.2,12.6,6.8c2.5,0.6,5.7-0.6,8.8,0c1.9,0,2.5,1.9,3.8,2.5c3.8,2.5,9.5,3.7,11.4,3.7
			c1.3,0,4.4-1.2,6.3-1.2c1.3,0,1.9,1.9,2.5,1.9c2.5,1.9,6.3,2.5,8.2,2.5c3.2,0,4.4,0,8.2-2.5C83.8,78,92,95.4,97.7,95.4
			c1.9,0,4.4-5,6.9-6.8c5.7-3.7,9.5-4.3,13.9-4.3c6.9,0,16.4,3.7,16.4,12.4c0,5-2.5,7.4-10.1,11.8c13.9,7.4,13.9,8.7,13.9,18
			c0,1.9,0,1.9-0.6,2.5c-13.2-3.1-27.7-15.5-26.5-25.4c2.5,1.2,6.3,2.5,8.2,2.5c4.4,0,12-4.3,12-9.3c0-8.1-10.7-8.7-13.2-8.7
			c-13.2,0-20.2,11.2-20.2,20.5c0,14.3,12,26,28.4,33.5c-7.6,6.8-12.6,15.5-12.6,23.6c0,7.4,4.4,14.9,15.1,22.3
			c-13.9,6.8-21.4,14.9-21.4,26c0,12.4,12,19.8,25.9,27.3c-8.2,5-11.4,11.2-11.4,16.1c0,6.2,5,16.1,13.2,20.5
			c-7.6,5.6-10.7,10.5-10.7,16.7c0,7.4,5.7,13.6,15.8,18.6h0.6c-3.8-4.3-7.6-11.2-7.6-16.1c0-5.6,5-10.5,12.6-12.4
			c1.3,11.2,0,24.8,1.9,29.2c0.6-1.9,1.3-14.3,1.3-25.4c0-1.2,0.6-2.5,1.3-3.7c7.6,3.7,11.4,5.6,11.4,12.4c0,6.2-3.8,8.7-6.3,16.7
			c11.4-7.4,15.1-10.5,15.1-19.2c0-6.8-1.3-9.9-10.7-16.1c9.5-7.4,13.2-13.6,13.2-21.1c0-6.8-2.5-10.5-10.7-15.5
			c3.8-3.1,8.8-5.6,12.6-8.7c10.7-6.8,12.6-12.4,12.6-19.2c0-13-9.5-21.1-20.8-26c10.7-7.4,14.5-14.9,14.5-22.3
			c0-6.8-3.2-16.7-12.6-22.9c0.6-0.6,1.9-1.9,3.2-2.5c16.4-7.4,25.2-18,25.2-31c0-11.8-8.2-21.1-20.2-21.1c-3.8,0-13.2,1.9-13.2,8.7
			c0,6.2,11.4,9.3,12.6,9.3c1.3,0,5.7-1.2,8.2-2.5c0,0,0.6-0.6,0.6,1.2c0,1.2-1.3,5.6-3.2,8.1c-1.9,2.5-7.6,8.7-10.7,9.9
			c-5,3.1-14.5,6.2-14.5,5c0-9.9,0.6-11.8,13.9-19.2c-6.3-5-10.1-7.4-10.1-11.8c0-9.9,11.4-12.4,16.4-12.4c7.6,0,14.8,5.6,18.4,8.9
			c0.8,0.9,1.5,1.7,2.1,2.1l0.2,0.2c0.1,0,0.2,0,0.3,0c0.1,0,0.2,0,0.3,0c1.9,0,4.2-2,6.4-4.8c1.6-1.6,3.1-3.5,3.8-5.1l0.3-0.9
			c1.4-2.2,2.6-4.3,3.5-5.9c0.5-0.5,1.1-1.2,1.8-2c0.1-0.1,0.1-0.2,0.2-0.3c3.6,2.3,4.8,2.3,7.9,2.3c1.9,0,5.7-0.6,8.2-2.5
			c0.6,0,1.3-1.9,2.5-1.9c1.9,0,5,1.2,6.3,1.2c1.9,0,7.6-1.2,11.4-3.7c1.3-0.6,1.9-2.5,3.8-2.5c3.2-0.6,6.3,0.6,8.8,0
			c3.8-0.6,8.2-3.7,12.6-6.8c1.9,0,20.2,0.6,20.2-8.1c0-4.3-15.1-7.4-17-8.7c-10.7-5-20.2-11.8-30.3-17.4
			c-11.4-5.6-36.6-24.8-51.7-24.8c-8.8,0-27.7,7.4-27.7,22.3c0,4.8,5.8,15.2,10.2,18.8c0,0.6-0.1,1.1-0.3,1.6
			c-0.3,0.5-0.6,1-0.8,1.5c-2.2,2.8-7.2,3.5-9.6,3.5c-3.2,0-5,0-8.2-3.1l0.6-11.8c0.6-2.5,0-5.6,1.3-7.4c1.3-3.1,3.8-8.7,3.8-11.2
			c0-11.2-8.8-17.4-18.3-17.4C137.4,0.5,129.9,7.9,129.9,17.9z M136.8,15.4c0-1.2,2.5-6.8,3.8-6.8l1.3,1.2c-1.3,1.9-2.5,4.3-2.5,5.6
			c0,4.3,1.3,3.1,5,8.7h-2.5C140,22.2,136.8,17.9,136.8,15.4z M175.3,93.5l2.5-0.6c0.6,0.6,1.9,0.6,2.5,1.2V96
			c-2.5-0.6-3.8-0.6-5-0.6V93.5z M115.4,94.1c1.3-0.6,3.2-1.2,4.4-1.2l0.6,1.9c-1.3,0.6-2.5,0.6-5,1.2V94.1z M156.4,174.8v-19.7
			c5.7,3.7,5.5,5.3,5.5,9.6C161.9,169,160.8,170.4,156.4,174.8z M133.8,164.7c0-3.1,1.7-7.3,6.2-9.2v19.6
			C135.5,172.6,133.8,166.6,133.8,164.7z M153.8,230.6v-30.4c10.1,5,15.8,6.8,15.8,14.9C169.6,222.5,160.1,225.6,153.8,230.6z
			 M126.1,214.5c0-6.8,6.9-9.9,15.8-14.3v30.4C135.5,225.6,126.1,223.1,126.1,214.5z M151.9,268.4v-16.1c2.5,1.9,5,5.6,5,8.1
			C157,262.2,153.8,266.6,151.9,268.4z M138.7,260.4c0-1.9,3.2-6.8,5-8.1c0.6,5.6,0.6,11.2,0.6,16.1
			C141.9,266.6,138.7,261.6,138.7,260.4z"/>
		<g clip-path="url(#SVGID_2_)">
			<path fill="#8CC43F" d="M950.5,243.5c-1.6,0-3.1-0.6-4.7-0.3c-4.4,0.8-7.6,4.5-7.6,9.1c0,5.8,0,11.7,0,17.5c0,0.9,0,1.7,0,2.7
				c-1.9,0.5-3.6,0.2-5.6,0.2c0-11.3,0-22.5,0-33.8c1.8-0.4,3.5-0.3,5.4-0.1c0.1,1,0.2,1.9,0.3,3.3c3.4-3.9,7.7-4.9,12.3-4.7
				C950.5,239.3,950.5,241.4,950.5,243.5z"/>
			<path fill="#28BCB2" d="M365.3,203.6c-3.5,0-6.7,0-10,0c0-20.3,0-40.6,0-61c3.2,0,6.4,0,9.8,0c0.6,1.9,0,4,0.4,6.4
				c4.7-6,10.8-8.7,18.1-8.4c7.7,0.3,12.7,4.6,15.8,11.6c1.4-1.9,2.4-3.7,3.8-5.2c8.7-9.1,24.7-8.3,33.2,1.8
				c4.4,5.1,6.6,11,6.7,17.8c0.1,12,0,24,0,35.9c0,0.4-0.1,0.8-0.1,1.2c-3.3,0-6.6,0-9.8,0c-0.5-0.9-0.3-1.8-0.3-2.6
				c0-11.1,0-22.2,0-33.3c0-3.2-0.6-6.2-2.2-9c-2.7-4.9-6.7-8-12.4-7.9c-5.9,0.1-9.7,3.5-12.3,8.6c-1.3,2.6-1.7,5.5-1.7,8.4
				c0,11,0,22,0,33.1c0,0.9,0,1.7,0,2.8c-3.5,0-6.8,0-10.1,0c-0.4-0.9-0.2-1.8-0.2-2.6c0-11.1,0-22.2,0-33.3c0-4.6-1.3-8.8-4.5-12.3
				c-5.9-6.5-15.6-5.9-20.7,1.2c-2.3,3.2-3.4,6.8-3.4,10.8c0,11.2,0,22.4,0,33.5C365.3,201.7,365.3,202.5,365.3,203.6z"/>
			<path fill="#28BCB2" d="M656.6,193.2c0,5.7,0,10.7,0,15.7c0,4.9,0,9.9,0,15c-3.6,0-6.8,0-10.3,0c0-27.1,0-54.1,0-81.2
				c3.3,0,6.6,0,10.2,0c0,3.3,0,6.6,0,10.2c1.4-0.6,1.8-1.7,2.5-2.5c11.3-13.2,34.1-13.7,46.1,2.3c11.8,15.7,7.8,39.1-8.8,49
				c-12.1,7.3-28.3,4.7-37.5-6C658.2,195.1,657.6,194.4,656.6,193.2z M678.9,195.5c12.5,0,22.6-10,22.6-22.4
				c0-12-10.2-22.2-22.3-22.4c-12.3-0.1-22.6,10.1-22.6,22.4C656.6,185.5,666.5,195.5,678.9,195.5z"/>
			<path fill="#28BCB2" d="M299.6,153.4c0-4,0-7.3,0-10.9c3.3,0,6.6,0,10,0c0,20.2,0,40.5,0,60.9c-3.2,0-6.5,0-10,0
				c0-3.3,0-6.6,0-9.8c-0.8-0.2-0.9,0.2-1.1,0.5c-8,10.2-18.6,13.6-30.9,10.6c-12.4-3.1-19.8-11.8-22.5-24
				c-3.4-15.1,3.4-30.2,16-36.9c11.3-6,27.8-4.4,37.1,7.8C298.4,152.1,298.8,152.5,299.6,153.4z M276.8,195.5
				c12.3,0,22.6-9.9,22.7-22.1c0.2-12.1-10.4-22.8-22.5-22.7c-12.2,0.1-22.4,10-22.4,21.9C254.5,185.4,264.2,195.5,276.8,195.5z"/>
			<path fill="#28BCB2" d="M502.8,193.2c-1.6,1.8-2.9,3.2-4.2,4.5c-10.6,10.8-30.3,10.8-41.4-0.6c-14.4-14.8-12.6-39.2,4.1-51.3
				c11.8-8.6,29.6-6.4,39.1,4.7c0.6,0.8,1.3,1.5,2.4,2.9c0-4,0-7.3,0-10.7c3.5,0,6.7,0,10.1,0c0,20.3,0,40.5,0,61
				c-3.2,0-6.5,0-10.1,0C502.8,200.2,502.8,197,502.8,193.2z M457.7,173.2c0,12.3,10,22.3,22.4,22.3c12.5,0,22.6-10,22.5-22.5
				c0-12-10.2-22.2-22.3-22.3C468.2,150.6,457.7,160.9,457.7,173.2z"/>
			<path fill="#8BC43F" d="M680.7,220.1c2.9,0,5.8,0,8.7,0c0.6,1.6,0,3.3,0.4,5.3c4.2-5,9.5-7.5,15.9-7.3c6.9,0.2,11.1,4.1,14,9.9
				c0.2-0.1,0.4-0.1,0.5-0.1c6.8-13.4,26.8-12.9,35,0.6c2.3,3.8,3.6,7.8,3.6,12.3c0,10.8,0,21.6,0,32.3c0,0.3-0.1,0.6-0.1,1.1
				c-2.9,0-5.8,0-8.8,0c-0.5-0.8-0.3-1.7-0.3-2.6c0-9.8,0-19.6,0-29.5c0-2.8-0.5-5.4-1.9-7.8c-2.8-5.1-7.3-7.6-12.5-7
				c-4.8,0.6-9.2,5-10.5,10.5c-0.3,1.4-0.5,2.8-0.5,4.3c0,9.7,0,19.5,0,29.2c0,0.9,0,1.7,0,2.8c-3.1,0-6,0-8.9,0
				c-0.5-0.8-0.3-1.7-0.3-2.5c0-9.8,0-19.6,0-29.5c0-2.8-0.5-5.6-1.9-8c-2.6-4.6-6.5-7.3-11.9-6.8c-5.5,0.5-8.6,4-10.6,8.9
				c-0.7,1.8-1,3.7-1,5.6c0,9.9,0,19.8,0,29.7c0,0.9,0,1.7,0,2.7c-3.1,0-5.9,0-9,0C680.7,256.2,680.7,238.3,680.7,220.1z"/>
			<path fill="#28BCB2" d="M543,174.5c-3.8,3.8-7.4,7.4-11.5,11.5c0,5.4,0,11.3,0,17.5c-3.4,0-6.7,0-10.2,0c0-27,0-54,0-81.2
				c3.3,0,6.6,0,10.1,0c0,16,0,31.9,0,48.1c9.5-9.6,18.8-19,27.7-28c5.6,0,10.2,0,14.6,0c-7.8,7.8-15.7,15.7-23.7,23.7
				c8.3,12.7,16.3,24.9,24.4,37.4c-4.3,0-8.2,0-12.3,0C555.8,193.9,549.3,184.2,543,174.5z"/>
			<path fill="#28BCB2" d="M608,205.7c-18.2,0-32.8-14.5-32.8-32.6c0-18,14.7-32.7,32.9-32.6c19.1,0,33.2,16,32.9,33.1
				C640.6,191.3,626.1,205.7,608,205.7z M630.4,173.2c0-12.2-10.4-22.7-22.3-22.5c-12.5,0.2-22.4,10-22.6,22.3
				c-0.2,12.2,10.1,22.5,22.5,22.5C620.4,195.5,630.4,185.6,630.4,173.2z"/>
			<path fill="#28BCB2" d="M747.3,205.7c-18.1,0-32.6-14.5-32.6-32.5c0-18.1,14.6-32.6,32.8-32.7c18.2,0,32.9,14.6,32.9,32.8
				C780.3,191.4,765.6,205.7,747.3,205.7z M769.8,173.2c0-12.3-9.9-22.3-22.4-22.5c-12.1-0.2-22.6,10.3-22.6,22.5
				c0,12.1,10.1,22.2,22.3,22.2C759.8,195.5,769.8,185.7,769.8,173.2z"/>
			<path fill="#28BCB2" d="M834.1,205.7c-18.1,0-32.7-14.5-32.7-32.5c0-18.1,14.5-32.6,32.7-32.7c18.2-0.1,32.9,14.6,32.9,32.8
				C867.1,191.3,852.4,205.7,834.1,205.7z M856.6,173.3c0-12.4-10.1-22.6-22.5-22.6c-12.2,0-22.5,10.3-22.5,22.4
				c0.1,12.4,10.1,22.3,22.4,22.4C846.6,195.5,856.6,185.6,856.6,173.3z"/>
			<path fill="#28BCB2" d="M921.7,159.2c-3.6,0-6.8,0-10.2,0c-0.5-4.2-3.3-6.2-7-7.3c-5.3-1.6-10.7-1.6-15.9,0.4
				c-0.6,0.2-1.2,0.5-1.7,0.8c-2.4,1.4-4,3.3-4,6.3c0,2.9,1.8,4.7,4.1,6c3.9,2.1,8.2,2.3,12.4,3.3c3.6,0.8,7.2,1.5,10.8,2.3
				c6,1.3,10.3,4.8,11.8,10.9c1.6,6.4,0.4,12.2-4.6,16.8c-4.3,3.9-9.4,6-15.1,6.7c-9.4,1.2-18.1-0.3-25.7-6.5
				c-3.5-2.9-5.3-7.1-5.2-11.8c3.2,0,6.4,0,9.9,0c1.1,6,5.8,7.4,11,8.1c4.4,0.7,8.8,0.4,13.1-0.7c3.1-0.8,5.8-2.4,6.6-5.8
				c0.7-2.9-0.4-5.3-2.9-7c-2.3-1.6-4.9-2.2-7.6-2.8c-5.5-1.2-10.9-2.3-16.4-3.4c-5.9-1.2-10.2-4.4-11.9-10.4
				c-1.8-6.3-0.9-12.2,3.9-17c10.3-10.2,30.6-9.9,40.5,0.6C920.4,151.5,921.8,155,921.7,159.2z"/>
			<path fill="#8BC43F" d="M792.2,276.2c-15.6,0.4-29.8-13.6-29.3-30.1c0.5-14.5,13.4-28.6,30.4-28c15.3,0.5,28.3,13.6,28.2,29.3
				C821.4,263.2,808.2,276.2,792.2,276.2z M792,267c11,0.2,20.3-8.9,20.4-19.8c0.1-10.4-9-19.6-19.3-20
				c-11.1-0.4-20.7,8.8-20.8,19.3C772.1,257.8,780.7,266.8,792,267z"/>
			<path fill="#28BCB2" d="M219,159.2c-2.2-0.7-4.1,0-6.1-0.6c0-3.2,0-6.5,0-9.9c2,0,3.8,0,6,0c0-4.5,0-8.8,0-13.1
				c0.1-11.4,11.7-18.8,22.1-14c0.4,0.2,0.7,0.4,1.3,0.7c-1.5,3-3,6-4.6,9c-1.3-0.2-2.3-1.1-3.7-1c-2.3,0.2-4.5,2-4.6,4.5
				c-0.2,4.5-0.1,9.1-0.1,13.8c3.4,0,6.6,0,10,0c0,3.5,0,6.7,0,10.2c-3.3,0-6.6,0-10.1,0c0,21.8,0,43.3,0,65c-3.5,0-6.7,0-10.3,0
				C219,202.3,219,180.7,219,159.2z"/>
			<path fill="#8CC43F" d="M863.3,220c3.2,0,6,0,9,0c0,18,0,35.9,0,54c-2.9,0-5.8,0-8.8,0c-0.6-1.6,0-3.3-0.4-4.9
				c-0.4-0.2-0.6,0.1-0.8,0.3c-5.8,6.1-13,8.1-21,5.9c-8.2-2.3-13-8.2-15.4-16.2c-0.3-1.1-0.6-2.2-0.6-3.3c0-11.8,0-23.6,0-35.7
				c2.9,0,5.8,0,8.8,0c0.6,0.7,0.3,1.6,0.3,2.4c0,10,0,20,0,30c0,7.9,6.4,14.3,14.2,14.4c7.8,0.1,14.4-6.1,14.6-13.8
				c0.2-10.1,0.1-20.1,0.1-30.2C863.3,222.1,863.3,221.2,863.3,220z"/>
			<path fill="#28BCB2" d="M328,203.6c-3.6,0-6.7,0-10.1,0c0-20.3,0-40.6,0-61.1c3.3,0,6.5,0,9.8,0c0.6,2,0,4,0.4,6.5
				c3-3.1,6.2-5.8,10.1-7.1c3.9-1.3,7.9-1.9,12-1.1c0,3.8,0,7.3,0,11.1c-3.4-1.1-6.6-1.5-10-0.6c-7.6,2-12.3,8.4-12.3,17
				c0,10.9,0,21.7,0,32.6C328,201.7,328,202.6,328,203.6z"/>
			<path fill="#8CC43F" d="M921.2,243.7c0.3-1.8-0.2-3.4,0.4-5c1.7-0.3,3.5-0.2,5.1-0.1c0.7,0.7,0.5,1.4,0.5,2.1
				c0,8.8,0,17.6,0,26.3c0,7.5-4.7,14.1-11.7,16.8c-7.1,2.7-14.8,0.9-19.9-4.7c-0.2-0.2-0.4-0.5-0.7-0.9c1.4-1.2,2.8-2.4,4.3-3.7
				c4.5,4.6,9.7,5.9,15.5,3.2c4.2-2,6.3-5.6,6.7-10.9c-3.9,4.1-8.1,6.7-13.5,6.8c-5.5,0.1-9.9-2.3-13.3-6.5
				c-6-7.3-5.2-18.7,1.6-25.3C903.1,235.3,912,235.8,921.2,243.7z M921.3,255.7c0-6.9-5.5-12.6-12.3-12.6c-6.9,0-12.6,5.5-12.7,12.3
				c-0.1,6.8,5.5,12.5,12.3,12.6C915.5,268,921.3,262.5,921.3,255.7z"/>
			<path fill="#28BCB2" d="M785.9,142.6c3.3,0,6.6,0,10,0c0,20.3,0,40.5,0,61c-3.2,0-6.5,0-10,0
				C785.9,183.3,785.9,163.1,785.9,142.6z"/>
			<path fill="#28BCB2" d="M790.6,134.4c-4.2,0-7-2.9-7-7.1c0-4.2,3-7.1,7.3-7.1c4.1,0.1,7.1,3.1,7.1,7.1
				C798.1,131.4,794.9,134.4,790.6,134.4z"/>
			<path fill="#8CC540" d="M879.1,268.5c0-2.4,1.6-4,4.1-3.9c2.2,0,3.9,1.8,3.9,3.9c0,2.3-1.8,4.1-4,4.1
				C880.8,272.7,879,270.9,879.1,268.5z"/>
			<path fill="#8BC43F" d="M90.2,173.9c0.8,17.9-15.5,32.7-32.6,32.8c-16.5,0.1-33.2-13.6-33-32.8c0.2-18.3,14.7-32.5,33-32.5
				C75.7,141.5,90.2,155.9,90.2,173.9z M34.9,174c0,12.4,9.9,22.4,22.3,22.4c12.3,0.1,22.6-10,22.6-22.2c0-12.4-10.1-22.6-22.5-22.6
				C45.1,151.6,35,161.7,34.9,174z"/>
		</g>
	</g>
	<g>
		<path fill="#666666" d="M222.6,252.3h4.9v8.5h9v-8.5h4.9v22.2h-4.9v-9.6h-9v9.6h-4.9V252.3z"/>
		<path fill="#666666" d="M257.7,258.4v10.1c0,1.1,0.2,1.8,0.7,2.3c0.4,0.5,1.1,0.8,1.9,0.8c1.2,0,2-0.4,2.6-1.3
			c0.6-0.9,0.8-2.3,0.8-4.3c0-0.5,0-1.1-0.1-1.7c-0.1-0.6-0.2-1.3-0.4-1.9c-0.2-0.7-0.4-1.3-0.6-2c-0.2-0.7-0.5-1.3-0.9-1.9h4.6
			c0.4,0.6,0.6,1.3,0.9,1.9c0.2,0.7,0.4,1.3,0.6,2c0.1,0.7,0.2,1.3,0.3,1.9s0.1,1.2,0.1,1.7c0,1.3-0.2,2.6-0.5,3.7
			c-0.3,1.1-0.8,2.1-1.5,2.8c-0.7,0.8-1.5,1.4-2.5,1.8c-1,0.4-2.1,0.6-3.4,0.6c-4.7,0-7-2-7-6v-10.5H257.7z"/>
		<path fill="#666666" d="M284.5,258.4c-0.3,1.8-0.6,3.6-1.1,5.2c-0.5,1.6-1,3.1-1.5,4.4c-0.5,1.4-1.1,2.6-1.7,3.7
			c-0.6,1.1-1.1,2.1-1.7,2.9l0,5.6h-4.4v-4.4c0-1.2-0.2-2.6-0.5-4.2c-0.3-1.6-0.7-3.2-1.2-4.8c-0.5-1.6-1-3.2-1.6-4.6
			c-0.6-1.5-1.2-2.7-1.7-3.7h4.7c0.3,0.6,0.7,1.3,1,2.3c0.3,0.9,0.7,1.9,0.9,3c0.3,1,0.5,2.1,0.7,3.1c0.2,1,0.3,2,0.4,2.8h0.2
			c0.3-0.6,0.6-1.4,0.9-2.2c0.3-0.8,0.5-1.7,0.8-2.7c0.2-1,0.5-2,0.7-3c0.2-1.1,0.4-2.1,0.5-3.2H284.5z"/>
		<path fill="#666666" d="M295.3,263.2c-0.1-0.7-0.4-1.2-0.9-1.5c-0.5-0.3-1.1-0.5-1.8-0.5c-0.8,0-1.5,0.2-1.9,0.5
			c-0.4,0.3-0.6,0.8-0.6,1.4c0,0.5,0.2,0.8,0.5,1.1c0.3,0.3,0.8,0.4,1.5,0.4h2v2.8h-2.1c-1.5,0-2.3,0.7-2.3,2c0,0.7,0.3,1.3,0.8,1.6
			c0.5,0.4,1.2,0.5,2.1,0.5c0.9,0,1.7-0.2,2.3-0.5c0.6-0.4,0.9-1.1,1-2.1h4.3c-0.3,2.1-1.2,3.6-2.5,4.5c-1.3,0.9-3.1,1.4-5.4,1.4
			c-2.2,0-3.9-0.4-5.1-1.3c-1.2-0.9-1.9-2.1-1.9-3.7c0-0.9,0.3-1.6,0.8-2.3c0.5-0.6,1.2-1.1,2.1-1.4v-0.1c-0.8-0.3-1.4-0.7-1.8-1.3
			c-0.4-0.6-0.5-1.2-0.5-2c0-0.8,0.2-1.5,0.5-2.1c0.4-0.6,0.8-1.1,1.4-1.6c0.6-0.4,1.3-0.8,2.2-1c0.8-0.2,1.7-0.3,2.7-0.3
			c1.9,0,3.5,0.4,4.7,1.2c1.2,0.8,1.9,2.1,2.2,3.9H295.3z"/>
		<path fill="#666666" d="M306.3,270.3c0,0.9,0.3,1.3,1,1.3c0.2,0,0.3,0,0.5,0c0.2,0,0.3-0.1,0.5-0.1v2.8c-0.5,0.2-1,0.4-1.4,0.5
			c-0.4,0.1-0.9,0.1-1.4,0.1c-2.4,0-3.6-1.2-3.6-3.5v-13h4.4V270.3z M303.1,251.8h5l-2.3,4.4h-3.7L303.1,251.8z"/>
		<path fill="#666666" d="M325.3,258.4v11.8c0,0.5,0.1,0.8,0.3,1c0.2,0.2,0.4,0.3,0.7,0.3c0.3,0,0.6-0.1,1-0.2v2.8
			c-0.9,0.4-1.7,0.7-2.7,0.7c-0.8,0-1.5-0.2-2.2-0.6c-0.7-0.4-1.2-1-1.4-1.9h-0.1c-0.4,0.8-1,1.4-1.7,1.8c-0.7,0.4-1.7,0.7-2.9,0.7
			c-1.1,0-2.1-0.2-3-0.7c-0.9-0.5-1.6-1.2-2.2-2c-0.6-0.8-1-1.7-1.3-2.7c-0.3-1-0.4-2.1-0.4-3.1c0-1,0.1-2,0.4-3
			c0.3-1,0.7-1.9,1.3-2.7c0.6-0.8,1.3-1.4,2.2-1.9c0.9-0.5,2-0.7,3.2-0.7c0.9,0,1.7,0.2,2.4,0.6c0.8,0.4,1.4,1,1.9,1.7h0.1v-1.9
			H325.3z M321,266.4c0-0.6-0.1-1.2-0.2-1.9c-0.1-0.6-0.3-1.2-0.6-1.6c-0.3-0.5-0.6-0.9-1.1-1.2c-0.4-0.3-0.9-0.5-1.5-0.5
			c-0.7,0-1.4,0.2-1.9,0.5c-0.5,0.3-0.9,0.7-1.2,1.2c-0.3,0.5-0.5,1.1-0.6,1.7c-0.1,0.6-0.2,1.2-0.2,1.8c0,0.6,0.1,1.2,0.2,1.8
			c0.1,0.6,0.4,1.1,0.7,1.6c0.3,0.5,0.7,0.9,1.2,1.2c0.5,0.3,1,0.5,1.7,0.5c0.6,0,1.2-0.2,1.6-0.5c0.5-0.3,0.8-0.7,1.1-1.2
			c0.3-0.5,0.5-1,0.6-1.6C321,267.7,321,267.1,321,266.4z"/>
		<path fill="#666666" d="M352.4,274.5h-4.2v-2.2h-0.1c-0.7,1-1.4,1.7-2,2.1c-0.7,0.4-1.3,0.6-2,0.6c-0.5,0-1-0.1-1.4-0.2
			c-0.4-0.1-0.7-0.3-1-0.5v6h-4.4v-21.7h4.4v9.1c0,1.3,0.2,2.3,0.6,3c0.4,0.7,1.2,1,2.2,1c1.2,0,2.1-0.4,2.6-1.1
			c0.5-0.7,0.8-1.9,0.8-3.5v-8.4h4.4V274.5z"/>
		<path fill="#666666" d="M355,266.5c0-1.3,0.2-2.5,0.6-3.5c0.4-1,1-1.9,1.7-2.7c0.7-0.7,1.6-1.3,2.6-1.7c1-0.4,2.2-0.6,3.4-0.6
			c1.3,0,2.4,0.2,3.4,0.6c1,0.4,1.9,1,2.6,1.7c0.7,0.7,1.3,1.6,1.7,2.7c0.4,1,0.6,2.2,0.6,3.5c0,1.3-0.2,2.4-0.6,3.5
			c-0.4,1-1,1.9-1.7,2.7c-0.7,0.7-1.6,1.3-2.6,1.7c-1,0.4-2.2,0.6-3.4,0.6c-1.3,0-2.4-0.2-3.4-0.6c-1-0.4-1.9-1-2.6-1.7
			c-0.7-0.7-1.3-1.6-1.7-2.7C355.2,268.9,355,267.8,355,266.5z M359.4,266.5c0,0.6,0.1,1.3,0.2,1.9c0.1,0.6,0.3,1.2,0.6,1.6
			c0.3,0.5,0.7,0.9,1.2,1.2c0.5,0.3,1.1,0.4,1.9,0.4c0.7,0,1.4-0.1,1.9-0.4c0.5-0.3,0.9-0.7,1.2-1.2c0.3-0.5,0.5-1,0.6-1.6
			c0.1-0.6,0.2-1.2,0.2-1.9s-0.1-1.3-0.2-1.9c-0.1-0.6-0.3-1.2-0.6-1.6c-0.3-0.5-0.7-0.9-1.2-1.2c-0.5-0.3-1.1-0.5-1.9-0.5
			c-0.7,0-1.4,0.2-1.9,0.5c-0.5,0.3-0.9,0.7-1.2,1.2c-0.3,0.5-0.5,1-0.6,1.6C359.4,265.2,359.4,265.8,359.4,266.5z"/>
		<path fill="#666666" d="M378.6,258.4v10.1c0,1.1,0.2,1.8,0.7,2.3c0.4,0.5,1.1,0.8,1.9,0.8c1.2,0,2-0.4,2.6-1.3
			c0.6-0.9,0.8-2.3,0.8-4.3c0-0.5,0-1.1-0.1-1.7c-0.1-0.6-0.2-1.3-0.4-1.9c-0.2-0.7-0.4-1.3-0.6-2c-0.2-0.7-0.5-1.3-0.9-1.9h4.6
			c0.4,0.6,0.6,1.3,0.9,1.9c0.2,0.7,0.4,1.3,0.6,2c0.1,0.7,0.2,1.3,0.3,1.9c0.1,0.6,0.1,1.2,0.1,1.7c0,1.3-0.2,2.6-0.5,3.7
			c-0.3,1.1-0.8,2.1-1.5,2.8c-0.7,0.8-1.5,1.4-2.5,1.8c-1,0.4-2.1,0.6-3.4,0.6c-4.7,0-7-2-7-6v-10.5H378.6z"/>
		<path fill="#666666" d="M396.7,269.7v4.8c0,0.7-0.1,1.4-0.4,1.9c-0.3,0.6-0.6,1.1-1,1.5c-0.4,0.4-0.9,0.8-1.5,1.1
			c-0.6,0.3-1.2,0.5-1.9,0.6v-2.2c0.3-0.1,0.6-0.2,0.9-0.4c0.3-0.2,0.5-0.4,0.7-0.7c0.2-0.3,0.4-0.5,0.5-0.9c0.1-0.3,0.1-0.6,0.1-1
			h-2.2v-4.8H396.7z"/>
		<path fill="#666666" d="M407.8,266.5c0-1.3,0.2-2.5,0.6-3.5c0.4-1,1-1.9,1.7-2.7c0.7-0.7,1.6-1.3,2.6-1.7c1-0.4,2.2-0.6,3.4-0.6
			c1.3,0,2.4,0.2,3.4,0.6c1,0.4,1.9,1,2.6,1.7c0.7,0.7,1.3,1.6,1.7,2.7c0.4,1,0.6,2.2,0.6,3.5c0,1.3-0.2,2.4-0.6,3.5
			c-0.4,1-1,1.9-1.7,2.7c-0.7,0.7-1.6,1.3-2.6,1.7c-1,0.4-2.2,0.6-3.4,0.6c-1.3,0-2.4-0.2-3.4-0.6c-1-0.4-1.9-1-2.6-1.7
			c-0.7-0.7-1.3-1.6-1.7-2.7C408,268.9,407.8,267.8,407.8,266.5z M412.2,266.5c0,0.6,0.1,1.3,0.2,1.9c0.1,0.6,0.3,1.2,0.6,1.6
			c0.3,0.5,0.7,0.9,1.2,1.2c0.5,0.3,1.1,0.4,1.9,0.4c0.7,0,1.4-0.1,1.9-0.4c0.5-0.3,0.9-0.7,1.2-1.2c0.3-0.5,0.5-1,0.6-1.6
			c0.1-0.6,0.2-1.2,0.2-1.9s-0.1-1.3-0.2-1.9c-0.1-0.6-0.3-1.2-0.6-1.6c-0.3-0.5-0.7-0.9-1.2-1.2c-0.5-0.3-1.1-0.5-1.9-0.5
			c-0.7,0-1.4,0.2-1.9,0.5c-0.5,0.3-0.9,0.7-1.2,1.2c-0.3,0.5-0.5,1-0.6,1.6C412.3,265.2,412.2,265.8,412.2,266.5z"/>
		<path fill="#666666" d="M434.8,266.5c0-1.2,0.2-2.3,0.6-3.3c0.4-1,1-1.8,1.7-2.6c0.7-0.7,1.7-1.3,2.8-1.7c1.1-0.4,2.3-0.6,3.7-0.6
			h8.6v3.3h-4c0.4,0.2,0.8,0.5,1.1,0.8c0.3,0.3,0.6,0.7,0.8,1.2c0.2,0.4,0.4,0.9,0.5,1.4c0.1,0.5,0.2,1,0.2,1.4c0,1-0.1,2-0.4,3
			c-0.3,1-0.8,1.9-1.4,2.7c-0.6,0.8-1.5,1.5-2.5,2c-1,0.5-2.2,0.8-3.7,0.8c-1.3,0-2.4-0.2-3.4-0.7c-1-0.4-1.9-1-2.5-1.8
			c-0.7-0.8-1.2-1.6-1.6-2.7C435,268.8,434.8,267.6,434.8,266.5z M439.2,266.5c0,1.8,0.3,3.1,1,3.9c0.7,0.8,1.5,1.2,2.6,1.2
			c1.1,0,2-0.5,2.6-1.4c0.6-0.9,0.9-2.2,0.9-3.8c0-1.2-0.1-2.2-0.4-2.9c-0.3-0.8-0.7-1.4-1.3-1.8h-1c-0.6,0-1.2,0.1-1.8,0.2
			c-0.5,0.2-1,0.4-1.4,0.8c-0.4,0.4-0.7,0.9-0.9,1.5C439.3,264.8,439.2,265.6,439.2,266.5z"/>
		<path fill="#666666" d="M458.1,258.4v10.1c0,1.1,0.2,1.8,0.7,2.3c0.4,0.5,1.1,0.8,1.9,0.8c1.2,0,2-0.4,2.6-1.3
			c0.6-0.9,0.8-2.3,0.8-4.3c0-0.5,0-1.1-0.1-1.7c-0.1-0.6-0.2-1.3-0.4-1.9c-0.2-0.7-0.4-1.3-0.6-2c-0.2-0.7-0.5-1.3-0.9-1.9h4.6
			c0.4,0.6,0.6,1.3,0.9,1.9c0.2,0.7,0.4,1.3,0.6,2c0.1,0.7,0.2,1.3,0.3,1.9c0.1,0.6,0.1,1.2,0.1,1.7c0,1.3-0.2,2.6-0.5,3.7
			c-0.3,1.1-0.8,2.1-1.5,2.8c-0.7,0.8-1.5,1.4-2.5,1.8c-1,0.4-2.1,0.6-3.4,0.6c-4.7,0-7-2-7-6v-10.5H458.1z M459.6,251.8h5l-2.3,4.4
			h-3.7L459.6,251.8z"/>
		<path fill="#666666" d="M486.3,274.5h-4.2v-2.2H482c-0.7,1-1.4,1.7-2,2.1c-0.7,0.4-1.3,0.6-2,0.6c-0.5,0-1-0.1-1.4-0.2
			c-0.4-0.1-0.7-0.3-1-0.5v6h-4.4v-21.7h4.4v9.1c0,1.3,0.2,2.3,0.6,3c0.4,0.7,1.2,1,2.2,1c1.2,0,2.1-0.4,2.6-1.1
			c0.5-0.7,0.8-1.9,0.8-3.5v-8.4h4.4V274.5z"/>
		<path fill="#666666" d="M489.3,259.3c0-2.5,0.6-4.3,1.8-5.5c1.2-1.2,3-1.7,5.4-1.7c1.2,0,2.3,0.1,3.2,0.4c0.9,0.3,1.6,0.7,2.2,1.2
			c0.6,0.5,1,1.1,1.2,1.7c0.2,0.7,0.4,1.3,0.4,2.1c0,1-0.3,1.9-0.8,2.6c-0.5,0.7-1.3,1.2-2.3,1.4v0.1c0.8,0.1,1.5,0.4,2.1,0.8
			c0.6,0.4,1.1,0.9,1.5,1.4c0.4,0.6,0.7,1.2,0.9,1.9c0.2,0.7,0.3,1.4,0.3,2.1c0,1.3-0.2,2.4-0.5,3.3c-0.3,0.9-0.8,1.7-1.4,2.3
			c-0.6,0.6-1.3,1-2.1,1.3c-0.8,0.3-1.6,0.4-2.5,0.4c-1.2,0-2.2-0.2-3-0.7c-0.8-0.5-1.4-1-1.8-1.6l0,0v7.6h-4.4V259.3z M495.9,263.6
			v-2.8h0.8c1.6,0,2.4-1,2.4-2.9c0-0.8-0.2-1.4-0.6-1.8c-0.4-0.4-1.1-0.7-1.9-0.7c-1,0-1.8,0.3-2.2,0.9c-0.5,0.6-0.7,1.7-0.7,3.2
			v6.3c0,1.9,0.3,3.4,1,4.3c0.7,0.9,1.5,1.4,2.6,1.4c0.4,0,0.9-0.1,1.3-0.2c0.4-0.1,0.8-0.4,1.1-0.7c0.3-0.3,0.6-0.7,0.8-1.2
			c0.2-0.5,0.3-1.1,0.3-1.8c0-1.5-0.3-2.6-0.8-3.3c-0.5-0.6-1.3-0.9-2.3-0.9H495.9z"/>
		<path fill="#666666" d="M506.8,266.5c0-1.3,0.2-2.5,0.6-3.5c0.4-1,1-1.9,1.7-2.7c0.7-0.7,1.6-1.3,2.6-1.7c1-0.4,2.2-0.6,3.4-0.6
			s2.4,0.2,3.4,0.6c1,0.4,1.9,1,2.6,1.7c0.7,0.7,1.3,1.6,1.7,2.7c0.4,1,0.6,2.2,0.6,3.5c0,1.3-0.2,2.4-0.6,3.5c-0.4,1-1,1.9-1.7,2.7
			c-0.7,0.7-1.6,1.3-2.6,1.7c-1,0.4-2.2,0.6-3.4,0.6s-2.4-0.2-3.4-0.6c-1-0.4-1.9-1-2.6-1.7c-0.7-0.7-1.3-1.6-1.7-2.7
			C507,268.9,506.8,267.8,506.8,266.5z M511.2,266.5c0,0.6,0.1,1.3,0.2,1.9c0.1,0.6,0.3,1.2,0.6,1.6c0.3,0.5,0.7,0.9,1.2,1.2
			c0.5,0.3,1.1,0.4,1.9,0.4c0.7,0,1.4-0.1,1.9-0.4c0.5-0.3,0.9-0.7,1.2-1.2c0.3-0.5,0.5-1,0.6-1.6c0.1-0.6,0.2-1.2,0.2-1.9
			s-0.1-1.3-0.2-1.9c-0.1-0.6-0.3-1.2-0.6-1.6c-0.3-0.5-0.7-0.9-1.2-1.2c-0.5-0.3-1.1-0.5-1.9-0.5c-0.7,0-1.4,0.2-1.9,0.5
			c-0.5,0.3-0.9,0.7-1.2,1.2c-0.3,0.5-0.5,1-0.6,1.6C511.3,265.2,511.2,265.8,511.2,266.5z"/>
		<path fill="#666666" d="M530.4,258.4v10.1c0,1.1,0.2,1.8,0.7,2.3c0.4,0.5,1.1,0.8,1.9,0.8c1.2,0,2-0.4,2.6-1.3
			c0.6-0.9,0.8-2.3,0.8-4.3c0-0.5,0-1.1-0.1-1.7c-0.1-0.6-0.2-1.3-0.4-1.9c-0.2-0.7-0.4-1.3-0.6-2c-0.2-0.7-0.5-1.3-0.9-1.9h4.6
			c0.4,0.6,0.6,1.3,0.9,1.9c0.2,0.7,0.4,1.3,0.6,2c0.1,0.7,0.2,1.3,0.3,1.9c0.1,0.6,0.1,1.2,0.1,1.7c0,1.3-0.2,2.6-0.5,3.7
			c-0.3,1.1-0.8,2.1-1.5,2.8c-0.7,0.8-1.5,1.4-2.5,1.8c-1,0.4-2.1,0.6-3.4,0.6c-4.7,0-7-2-7-6v-10.5H530.4z"/>
		<path fill="#666666" d="M557.9,271.6c0.2,0,0.3,0,0.5,0c0.2,0,0.3-0.1,0.5-0.1v2.8c-0.4,0.2-0.8,0.4-1.3,0.5
			c-0.4,0.1-0.8,0.2-1.2,0.2c-1,0-1.7-0.2-2.3-0.6c-0.5-0.4-0.9-1-1.1-1.7l-2.6-8.4h-0.1l-3.6,10.2H542l6.4-14.9l-1.3-3
			c-0.2-0.5-0.5-0.8-0.8-0.9c-0.3-0.1-0.8-0.2-1.2-0.2c-0.5,0-1,0.1-1.5,0.2v-3.3c0.5-0.1,1-0.2,1.4-0.3c0.5,0,0.9-0.1,1.4-0.1
			c0.7,0,1.3,0.1,1.9,0.2c0.5,0.2,1,0.4,1.4,0.7c0.4,0.3,0.7,0.8,1.1,1.3c0.3,0.5,0.6,1.2,0.9,2l5.5,14.5c0.1,0.3,0.3,0.5,0.4,0.6
			C557.6,271.6,557.8,271.6,557.9,271.6z"/>
		<path fill="#666666" d="M559.8,266.5c0-1.3,0.2-2.5,0.6-3.5c0.4-1,1-1.9,1.7-2.7c0.7-0.7,1.6-1.3,2.6-1.7c1-0.4,2.2-0.6,3.4-0.6
			c1.3,0,2.4,0.2,3.4,0.6c1,0.4,1.9,1,2.6,1.7c0.7,0.7,1.3,1.6,1.7,2.7c0.4,1,0.6,2.2,0.6,3.5c0,1.3-0.2,2.4-0.6,3.5
			c-0.4,1-1,1.9-1.7,2.7c-0.7,0.7-1.6,1.3-2.6,1.7c-1,0.4-2.2,0.6-3.4,0.6c-1.3,0-2.4-0.2-3.4-0.6c-1-0.4-1.9-1-2.6-1.7
			c-0.7-0.7-1.3-1.6-1.7-2.7C560,268.9,559.8,267.8,559.8,266.5z M564.2,266.5c0,0.6,0.1,1.3,0.2,1.9c0.1,0.6,0.3,1.2,0.6,1.6
			c0.3,0.5,0.7,0.9,1.2,1.2c0.5,0.3,1.1,0.4,1.9,0.4c0.7,0,1.4-0.1,1.9-0.4c0.5-0.3,0.9-0.7,1.2-1.2c0.3-0.5,0.5-1,0.6-1.6
			c0.1-0.6,0.2-1.2,0.2-1.9s-0.1-1.3-0.2-1.9c-0.1-0.6-0.3-1.2-0.6-1.6c-0.3-0.5-0.7-0.9-1.2-1.2c-0.5-0.3-1.1-0.5-1.9-0.5
			c-0.7,0-1.4,0.2-1.9,0.5c-0.5,0.3-0.9,0.7-1.2,1.2c-0.3,0.5-0.5,1-0.6,1.6C564.3,265.2,564.2,265.8,564.2,266.5z M567.1,251.8h5
			l-2.3,4.4h-3.7L567.1,251.8z"/>
		<path fill="#666666" d="M587.9,270.9c0.8,0,1.5,0.1,2.1,0.4c0.5,0.3,1,0.6,1.3,1.1c0.3,0.4,0.6,1,0.7,1.5c0.1,0.6,0.2,1.2,0.2,1.8
			c0,0.5,0,1.1-0.1,1.7c-0.1,0.6-0.2,1.2-0.4,1.8H588c0.1-0.6,0.2-1.1,0.3-1.6c0.1-0.5,0.1-0.9,0.1-1.2c0-0.3,0-0.5,0-0.8
			c0-0.2-0.1-0.5-0.2-0.7c-0.1-0.2-0.2-0.3-0.4-0.5c-0.2-0.1-0.4-0.2-0.7-0.2h-1.3c-1,0-2-0.2-2.9-0.5c-0.9-0.3-1.6-0.8-2.3-1.5
			c-0.6-0.7-1.1-1.5-1.5-2.6c-0.4-1-0.5-2.2-0.5-3.6c0-1,0.2-2,0.5-3c0.3-1,0.8-1.9,1.5-2.7c0.7-0.8,1.5-1.4,2.6-1.9
			c1-0.5,2.3-0.7,3.7-0.7c0.9,0,1.7,0.1,2.5,0.3c0.8,0.2,1.5,0.5,2.1,1c0.6,0.4,1.2,1,1.6,1.7c0.4,0.7,0.8,1.5,1,2.4h-4.3
			c-0.2-0.8-0.6-1.3-1.2-1.6c-0.5-0.3-1.1-0.5-1.7-0.5c-0.7,0-1.3,0.2-1.8,0.5c-0.5,0.3-0.9,0.7-1.2,1.2c-0.3,0.5-0.5,1-0.6,1.6
			s-0.2,1.2-0.2,1.8c0,1.6,0.3,2.7,1,3.5c0.7,0.7,1.6,1.1,2.8,1.1H587.9z"/>
		<path fill="#666666" d="M619.1,274.5h-4.2v-2.2h-0.1c-0.7,1-1.4,1.7-2,2.1c-0.7,0.4-1.3,0.6-2,0.6c-0.5,0-1-0.1-1.4-0.2
			c-0.4-0.1-0.7-0.3-1-0.5v6H604v-21.7h4.4v9.1c0,1.3,0.2,2.3,0.6,3c0.4,0.7,1.2,1,2.2,1c1.2,0,2.1-0.4,2.6-1.1
			c0.5-0.7,0.8-1.9,0.8-3.5v-8.4h4.4V274.5z"/>
		<path fill="#666666" d="M621.7,266.5c0-1.3,0.2-2.5,0.6-3.5c0.4-1,1-1.9,1.7-2.7c0.7-0.7,1.6-1.3,2.6-1.7c1-0.4,2.2-0.6,3.4-0.6
			s2.4,0.2,3.4,0.6c1,0.4,1.9,1,2.6,1.7c0.7,0.7,1.3,1.6,1.7,2.7c0.4,1,0.6,2.2,0.6,3.5c0,1.3-0.2,2.4-0.6,3.5c-0.4,1-1,1.9-1.7,2.7
			c-0.7,0.7-1.6,1.3-2.6,1.7c-1,0.4-2.2,0.6-3.4,0.6s-2.4-0.2-3.4-0.6c-1-0.4-1.9-1-2.6-1.7c-0.7-0.7-1.3-1.6-1.7-2.7
			C621.9,268.9,621.7,267.8,621.7,266.5z M626.1,266.5c0,0.6,0.1,1.3,0.2,1.9c0.1,0.6,0.3,1.2,0.6,1.6c0.3,0.5,0.7,0.9,1.2,1.2
			c0.5,0.3,1.1,0.4,1.9,0.4c0.7,0,1.4-0.1,1.9-0.4c0.5-0.3,0.9-0.7,1.2-1.2c0.3-0.5,0.5-1,0.6-1.6c0.1-0.6,0.2-1.2,0.2-1.9
			s-0.1-1.3-0.2-1.9c-0.1-0.6-0.3-1.2-0.6-1.6c-0.3-0.5-0.7-0.9-1.2-1.2c-0.5-0.3-1.1-0.5-1.9-0.5c-0.7,0-1.4,0.2-1.9,0.5
			c-0.5,0.3-0.9,0.7-1.2,1.2c-0.3,0.5-0.5,1-0.6,1.6C626.1,265.2,626.1,265.8,626.1,266.5z"/>
		<path fill="#666666" d="M645.3,258.4v10.1c0,1.1,0.2,1.8,0.7,2.3c0.4,0.5,1.1,0.8,1.9,0.8c1.2,0,2-0.4,2.6-1.3
			c0.6-0.9,0.8-2.3,0.8-4.3c0-0.5,0-1.1-0.1-1.7c-0.1-0.6-0.2-1.3-0.4-1.9c-0.2-0.7-0.4-1.3-0.6-2c-0.2-0.7-0.5-1.3-0.9-1.9h4.6
			c0.4,0.6,0.6,1.3,0.9,1.9c0.2,0.7,0.4,1.3,0.6,2c0.1,0.7,0.2,1.3,0.3,1.9s0.1,1.2,0.1,1.7c0,1.3-0.2,2.6-0.5,3.7
			c-0.3,1.1-0.8,2.1-1.5,2.8c-0.7,0.8-1.5,1.4-2.5,1.8c-1,0.4-2.1,0.6-3.4,0.6c-4.7,0-7-2-7-6v-10.5H645.3z"/>
	</g>
	<g display="none">
		<path display="inline" fill="#666666" d="M229.5,252.3l5.2,15.3h0.1l4.9-15.3h6.9v22.2H242v-15.7h-0.1l-5.4,15.7h-3.8l-5.4-15.6
			h-0.1v15.6h-4.6v-22.2H229.5z"/>
		<path display="inline" fill="#666666" d="M256,279.3c-0.9,0.6-2,0.8-3.5,0.8c-0.5,0-0.9,0-1.4,0c-0.4,0-0.9-0.1-1.4-0.1v-3.6
			c0.4,0,0.8,0.1,1.3,0.1c0.4,0,0.9,0.1,1.3,0c0.6-0.1,1-0.3,1.3-0.7c0.3-0.4,0.4-0.8,0.4-1.3c0-0.4-0.1-0.7-0.2-1l-5.6-15.1h4.7
			l3.6,11h0.1l3.5-11h4.6l-6.7,18.1C257.5,277.8,256.9,278.7,256,279.3z"/>
		<path display="inline" fill="#666666" d="M278.6,252.3v8.4h0.1c0.6-0.9,1.3-1.6,2.1-2c0.9-0.4,1.7-0.6,2.6-0.6
			c1.2,0,2.2,0.2,2.9,0.5c0.8,0.3,1.4,0.8,1.8,1.3c0.4,0.6,0.7,1.3,0.9,2.1c0.2,0.8,0.3,1.7,0.3,2.7v9.9h-4.4v-9.1
			c0-1.3-0.2-2.3-0.6-3c-0.4-0.7-1.2-1-2.2-1c-1.2,0-2.1,0.4-2.6,1.1c-0.5,0.7-0.8,1.9-0.8,3.5v8.4h-4.4v-22.2H278.6z"/>
		<path display="inline" fill="#666666" d="M297.1,270.6c0.7,0.6,1.6,1,2.9,1c0.9,0,1.7-0.2,2.3-0.7c0.6-0.4,1-0.9,1.2-1.4h3.9
			c-0.6,1.9-1.6,3.3-2.9,4.1c-1.3,0.8-2.8,1.2-4.7,1.2c-1.3,0-2.4-0.2-3.4-0.6c-1-0.4-1.9-1-2.6-1.7c-0.7-0.7-1.2-1.6-1.6-2.7
			c-0.4-1-0.6-2.2-0.6-3.4c0-1.2,0.2-2.3,0.6-3.4c0.4-1,1-1.9,1.7-2.7c0.7-0.8,1.6-1.4,2.6-1.8c1-0.4,2.1-0.7,3.3-0.7
			c1.4,0,2.6,0.3,3.6,0.8c1,0.5,1.9,1.2,2.5,2.1c0.7,0.9,1.1,1.9,1.4,3c0.3,1.1,0.4,2.3,0.3,3.6H296
			C296.1,269,296.4,270,297.1,270.6z M302.1,262.2c-0.5-0.6-1.3-0.9-2.4-0.9c-0.7,0-1.3,0.1-1.8,0.4c-0.5,0.2-0.8,0.5-1.1,0.9
			c-0.3,0.4-0.5,0.7-0.6,1.1c-0.1,0.4-0.2,0.7-0.2,1.1h7.2C303,263.6,302.6,262.8,302.1,262.2z"/>
		<path display="inline" fill="#666666" d="M309.7,263.4c0.1-1,0.3-1.9,0.8-2.6c0.5-0.7,1-1.2,1.7-1.6c0.7-0.4,1.5-0.7,2.4-0.9
			c0.9-0.2,1.8-0.3,2.7-0.3c0.8,0,1.6,0.1,2.5,0.2c0.8,0.1,1.6,0.3,2.3,0.7c0.7,0.3,1.2,0.8,1.7,1.4c0.4,0.6,0.7,1.4,0.7,2.3v8.4
			c0,0.7,0,1.4,0.1,2.1c0.1,0.7,0.2,1.2,0.4,1.5h-4.5c-0.1-0.2-0.2-0.5-0.2-0.8c-0.1-0.3-0.1-0.5-0.1-0.8c-0.7,0.7-1.5,1.2-2.5,1.5
			c-1,0.3-1.9,0.4-2.9,0.4c-0.8,0-1.5-0.1-2.1-0.3c-0.7-0.2-1.2-0.5-1.7-0.9c-0.5-0.4-0.9-0.9-1.2-1.5c-0.3-0.6-0.4-1.3-0.4-2.1
			c0-0.9,0.2-1.7,0.5-2.3c0.3-0.6,0.7-1.1,1.2-1.4c0.5-0.4,1.1-0.6,1.7-0.8c0.7-0.2,1.3-0.3,2-0.4c0.7-0.1,1.3-0.2,2-0.2
			c0.6-0.1,1.2-0.2,1.7-0.3c0.5-0.1,0.9-0.3,1.2-0.5c0.3-0.2,0.4-0.6,0.4-1c0-0.5-0.1-0.9-0.2-1.1c-0.2-0.3-0.4-0.5-0.6-0.7
			c-0.3-0.2-0.6-0.3-0.9-0.3c-0.3-0.1-0.7-0.1-1.1-0.1c-0.9,0-1.6,0.2-2.1,0.6c-0.5,0.4-0.8,1-0.9,1.9H309.7z M319.9,266.6
			c-0.2,0.2-0.4,0.3-0.7,0.4c-0.3,0.1-0.6,0.2-0.9,0.2c-0.3,0.1-0.7,0.1-1,0.2c-0.4,0-0.7,0.1-1.1,0.2c-0.3,0.1-0.7,0.1-1,0.2
			c-0.3,0.1-0.6,0.2-0.8,0.4c-0.2,0.2-0.4,0.4-0.6,0.7c-0.1,0.3-0.2,0.6-0.2,1c0,0.4,0.1,0.7,0.2,1c0.1,0.3,0.3,0.5,0.6,0.6
			s0.5,0.3,0.9,0.3c0.3,0.1,0.7,0.1,1,0.1c0.9,0,1.5-0.1,2-0.4c0.5-0.3,0.8-0.6,1.1-1c0.2-0.4,0.4-0.8,0.4-1.2
			c0.1-0.4,0.1-0.7,0.1-1V266.6z"/>
		<path display="inline" fill="#666666" d="M332,252.3v22.2h-4.4v-22.2H332z"/>
		<path display="inline" fill="#666666" d="M344,258.4v3h-3.2v8c0,0.7,0.1,1.2,0.4,1.5c0.2,0.2,0.7,0.4,1.5,0.4c0.2,0,0.5,0,0.7,0
			c0.2,0,0.4-0.1,0.7-0.1v3.4c-0.4,0.1-0.8,0.1-1.2,0.1c-0.5,0-0.9,0-1.3,0c-0.7,0-1.3,0-1.9-0.1c-0.6-0.1-1.2-0.3-1.6-0.5
			c-0.5-0.3-0.8-0.7-1.1-1.2c-0.3-0.5-0.4-1.2-0.4-2v-9.5h-2.7v-3h2.7v-4.8h4.4v4.8H344z"/>
		<path display="inline" fill="#666666" d="M350.2,252.3v8.4h0.1c0.6-0.9,1.3-1.6,2.1-2c0.9-0.4,1.7-0.6,2.6-0.6
			c1.2,0,2.2,0.2,2.9,0.5c0.8,0.3,1.4,0.8,1.8,1.3c0.4,0.6,0.7,1.3,0.9,2.1c0.2,0.8,0.3,1.7,0.3,2.7v9.9h-4.4v-9.1
			c0-1.3-0.2-2.3-0.6-3c-0.4-0.7-1.2-1-2.2-1c-1.2,0-2.1,0.4-2.6,1.1c-0.5,0.7-0.8,1.9-0.8,3.5v8.4h-4.4v-22.2H350.2z"/>
		<path display="inline" fill="#666666" d="M369,269.7v4.8c0,0.7-0.1,1.4-0.4,1.9c-0.3,0.6-0.6,1.1-1,1.5c-0.4,0.4-0.9,0.8-1.5,1.1
			c-0.6,0.3-1.2,0.5-1.9,0.6v-2.2c0.3-0.1,0.6-0.2,0.9-0.4c0.3-0.2,0.5-0.4,0.7-0.7c0.2-0.3,0.4-0.5,0.5-0.9c0.1-0.3,0.1-0.6,0.1-1
			h-2.2v-4.8H369z"/>
		<path display="inline" fill="#666666" d="M384.9,258.4v2.2h0.1c0.6-0.8,1.3-1.5,2.1-1.9c0.8-0.5,1.8-0.7,2.8-0.7
			c1,0,1.9,0.2,2.8,0.6c0.8,0.4,1.5,1.1,1.9,2.1c0.5-0.7,1.1-1.3,1.9-1.9c0.8-0.5,1.8-0.8,2.9-0.8c0.9,0,1.6,0.1,2.4,0.3
			c0.7,0.2,1.3,0.5,1.9,1c0.5,0.5,0.9,1.1,1.2,1.8c0.3,0.7,0.4,1.6,0.4,2.7v10.8h-4.4v-9.1c0-0.5,0-1-0.1-1.5c0-0.5-0.2-0.9-0.3-1.2
			c-0.2-0.4-0.5-0.6-0.8-0.8c-0.4-0.2-0.9-0.3-1.5-0.3s-1.1,0.1-1.5,0.4c-0.4,0.2-0.7,0.5-0.9,0.9c-0.2,0.4-0.4,0.8-0.4,1.3
			c-0.1,0.5-0.1,1-0.1,1.5v9h-4.4v-9c0-0.5,0-0.9,0-1.4c0-0.5-0.1-0.9-0.3-1.3c-0.2-0.4-0.4-0.7-0.8-0.9c-0.4-0.2-0.9-0.4-1.6-0.4
			c-0.2,0-0.5,0-0.8,0.1c-0.3,0.1-0.7,0.3-1,0.5c-0.3,0.3-0.6,0.6-0.8,1.1c-0.2,0.5-0.3,1.1-0.3,1.9v9.3h-4.4v-16.1H384.9z"/>
		<path display="inline" fill="#666666" d="M414.4,279.3c-0.9,0.6-2,0.8-3.5,0.8c-0.5,0-0.9,0-1.4,0c-0.4,0-0.9-0.1-1.4-0.1v-3.6
			c0.4,0,0.8,0.1,1.3,0.1c0.4,0,0.9,0.1,1.3,0c0.6-0.1,1-0.3,1.3-0.7c0.3-0.4,0.4-0.8,0.4-1.3c0-0.4-0.1-0.7-0.2-1l-5.6-15.1h4.7
			l3.6,11h0.1l3.5-11h4.6l-6.7,18.1C415.9,277.8,415.3,278.7,414.4,279.3z"/>
		<path display="inline" fill="#666666" d="M432.4,263.4c0.1-1,0.3-1.9,0.8-2.6c0.5-0.7,1-1.2,1.7-1.6c0.7-0.4,1.5-0.7,2.4-0.9
			c0.9-0.2,1.8-0.3,2.7-0.3c0.8,0,1.6,0.1,2.5,0.2c0.8,0.1,1.6,0.3,2.3,0.7c0.7,0.3,1.2,0.8,1.7,1.4c0.4,0.6,0.7,1.4,0.7,2.3v8.4
			c0,0.7,0,1.4,0.1,2.1c0.1,0.7,0.2,1.2,0.4,1.5h-4.5c-0.1-0.2-0.2-0.5-0.2-0.8c-0.1-0.3-0.1-0.5-0.1-0.8c-0.7,0.7-1.5,1.2-2.5,1.5
			c-1,0.3-1.9,0.4-2.9,0.4c-0.8,0-1.5-0.1-2.1-0.3c-0.7-0.2-1.2-0.5-1.7-0.9c-0.5-0.4-0.9-0.9-1.2-1.5c-0.3-0.6-0.4-1.3-0.4-2.1
			c0-0.9,0.2-1.7,0.5-2.3c0.3-0.6,0.7-1.1,1.2-1.4c0.5-0.4,1.1-0.6,1.7-0.8c0.7-0.2,1.3-0.3,2-0.4c0.7-0.1,1.3-0.2,2-0.2
			c0.6-0.1,1.2-0.2,1.7-0.3c0.5-0.1,0.9-0.3,1.2-0.5c0.3-0.2,0.4-0.6,0.4-1c0-0.5-0.1-0.9-0.2-1.1c-0.2-0.3-0.4-0.5-0.6-0.7
			c-0.3-0.2-0.6-0.3-0.9-0.3c-0.3-0.1-0.7-0.1-1.1-0.1c-0.9,0-1.6,0.2-2.1,0.6c-0.5,0.4-0.8,1-0.9,1.9H432.4z M442.6,266.6
			c-0.2,0.2-0.4,0.3-0.7,0.4c-0.3,0.1-0.6,0.2-0.9,0.2c-0.3,0.1-0.7,0.1-1,0.2c-0.4,0-0.7,0.1-1.1,0.2c-0.3,0.1-0.7,0.1-1,0.2
			c-0.3,0.1-0.6,0.2-0.8,0.4c-0.2,0.2-0.4,0.4-0.6,0.7c-0.1,0.3-0.2,0.6-0.2,1c0,0.4,0.1,0.7,0.2,1c0.1,0.3,0.3,0.5,0.6,0.6
			s0.5,0.3,0.9,0.3c0.3,0.1,0.7,0.1,1,0.1c0.9,0,1.5-0.1,2-0.4c0.5-0.3,0.8-0.6,1.1-1c0.2-0.4,0.4-0.8,0.4-1.2
			c0.1-0.4,0.1-0.7,0.1-1V266.6z"/>
		<path display="inline" fill="#666666" d="M461.6,272.4c-0.5,0.9-1.2,1.5-2,1.9c-0.8,0.4-1.8,0.6-2.8,0.6c-1.2,0-2.3-0.2-3.2-0.7
			c-0.9-0.5-1.7-1.1-2.3-1.9c-0.6-0.8-1-1.7-1.3-2.8c-0.3-1-0.5-2.1-0.5-3.2c0-1.1,0.2-2.1,0.5-3.1c0.3-1,0.7-1.9,1.3-2.7
			c0.6-0.8,1.3-1.4,2.2-1.9c0.9-0.5,1.9-0.7,3.1-0.7c1,0,1.9,0.2,2.7,0.6c0.9,0.4,1.5,1,2,1.8h0.1v-8.1h4.4v22.2h-4.2L461.6,272.4
			L461.6,272.4z M461.4,264.5c-0.1-0.6-0.3-1.2-0.6-1.6c-0.3-0.5-0.7-0.8-1.2-1.1c-0.5-0.3-1.1-0.4-1.8-0.4c-0.7,0-1.3,0.1-1.8,0.4
			c-0.5,0.3-0.9,0.7-1.2,1.2c-0.3,0.5-0.5,1-0.7,1.6c-0.1,0.6-0.2,1.2-0.2,1.9c0,0.6,0.1,1.2,0.2,1.9c0.1,0.6,0.4,1.2,0.7,1.7
			c0.3,0.5,0.7,0.9,1.2,1.2c0.5,0.3,1.1,0.5,1.8,0.5c0.7,0,1.3-0.1,1.8-0.4c0.5-0.3,0.9-0.7,1.2-1.2c0.3-0.5,0.5-1,0.6-1.7
			c0.1-0.6,0.2-1.3,0.2-1.9C461.6,265.7,461.5,265.1,461.4,264.5z"/>
		<path display="inline" fill="#666666" d="M472.8,274.5l-5.5-16.1h4.6l3.4,11h0.1l3.4-11h4.4l-5.4,16.1H472.8z"/>
		<path display="inline" fill="#666666" d="M484.9,255.9v-3.6h4.4v3.6H484.9z M489.3,258.4v16.1h-4.4v-16.1H489.3z"/>
		<path display="inline" fill="#666666" d="M496.2,270.5c0.2,0.3,0.5,0.6,0.8,0.8c0.3,0.2,0.7,0.4,1.1,0.5s0.8,0.2,1.3,0.2
			c0.3,0,0.6,0,1-0.1c0.3-0.1,0.7-0.2,0.9-0.3c0.3-0.2,0.5-0.4,0.7-0.6c0.2-0.3,0.3-0.6,0.3-1c0-0.7-0.4-1.2-1.3-1.5
			c-0.9-0.3-2.1-0.7-3.7-1c-0.6-0.1-1.3-0.3-1.9-0.5c-0.6-0.2-1.2-0.5-1.6-0.8c-0.5-0.3-0.9-0.7-1.2-1.2c-0.3-0.5-0.4-1.1-0.4-1.8
			c0-1,0.2-1.9,0.6-2.6c0.4-0.7,0.9-1.2,1.6-1.6c0.7-0.4,1.4-0.7,2.2-0.8c0.8-0.2,1.7-0.2,2.6-0.2c0.9,0,1.7,0.1,2.5,0.2
			c0.8,0.2,1.5,0.4,2.2,0.8c0.6,0.4,1.2,0.9,1.6,1.6c0.4,0.7,0.7,1.5,0.8,2.5h-4.2c-0.1-0.8-0.4-1.4-1-1.7c-0.6-0.3-1.3-0.5-2.1-0.5
			c-0.2,0-0.5,0-0.8,0c-0.3,0-0.6,0.1-0.8,0.2c-0.2,0.1-0.4,0.3-0.6,0.5c-0.2,0.2-0.2,0.5-0.2,0.8c0,0.4,0.1,0.7,0.4,1
			c0.3,0.2,0.7,0.5,1.1,0.6c0.5,0.2,1,0.3,1.6,0.4c0.6,0.1,1.2,0.3,1.8,0.4c0.6,0.1,1.3,0.3,1.9,0.5c0.6,0.2,1.2,0.5,1.6,0.8
			c0.5,0.3,0.9,0.8,1.2,1.3c0.3,0.5,0.4,1.1,0.4,1.9c0,1.1-0.2,1.9-0.6,2.7c-0.4,0.7-1,1.3-1.7,1.7c-0.7,0.4-1.5,0.7-2.3,0.9
			c-0.9,0.2-1.8,0.3-2.7,0.3c-0.9,0-1.8-0.1-2.7-0.3c-0.9-0.2-1.7-0.5-2.4-0.9c-0.7-0.4-1.3-1-1.7-1.7c-0.4-0.7-0.7-1.6-0.7-2.7h4.2
			C495.9,269.7,496,270.2,496.2,270.5z"/>
		<path display="inline" fill="#666666" d="M508.9,263c0.4-1,1-1.9,1.7-2.7c0.7-0.7,1.6-1.3,2.6-1.7c1-0.4,2.2-0.6,3.4-0.6
			c1.3,0,2.4,0.2,3.4,0.6c1,0.4,1.9,1,2.6,1.7c0.7,0.7,1.3,1.6,1.7,2.7c0.4,1,0.6,2.2,0.6,3.5c0,1.3-0.2,2.4-0.6,3.5
			c-0.4,1-1,1.9-1.7,2.7c-0.7,0.7-1.6,1.3-2.6,1.7c-1,0.4-2.2,0.6-3.4,0.6c-1.3,0-2.4-0.2-3.4-0.6c-1-0.4-1.9-1-2.6-1.7
			c-0.7-0.7-1.3-1.6-1.7-2.7c-0.4-1-0.6-2.2-0.6-3.5C508.3,265.2,508.5,264,508.9,263z M512.9,268.3c0.1,0.6,0.3,1.2,0.6,1.6
			c0.3,0.5,0.7,0.9,1.2,1.2c0.5,0.3,1.1,0.4,1.9,0.4c0.7,0,1.4-0.1,1.9-0.4c0.5-0.3,0.9-0.7,1.2-1.2c0.3-0.5,0.5-1,0.6-1.6
			c0.1-0.6,0.2-1.2,0.2-1.9s-0.1-1.3-0.2-1.9c-0.1-0.6-0.3-1.2-0.6-1.6c-0.3-0.5-0.7-0.9-1.2-1.2c-0.5-0.3-1.1-0.5-1.9-0.5
			c-0.7,0-1.4,0.2-1.9,0.5c-0.5,0.3-0.9,0.7-1.2,1.2c-0.3,0.5-0.5,1-0.6,1.6c-0.1,0.6-0.2,1.3-0.2,1.9S512.8,267.7,512.9,268.3z"/>
		<path display="inline" fill="#666666" d="M531.7,258.4v3h0.1c0.2-0.5,0.5-1,0.8-1.4c0.4-0.4,0.8-0.8,1.2-1.1
			c0.5-0.3,0.9-0.5,1.5-0.7c0.5-0.2,1.1-0.2,1.6-0.2c0.3,0,0.6,0.1,1,0.2v4.1c-0.2,0-0.5-0.1-0.7-0.1c-0.3,0-0.6,0-0.8,0
			c-0.8,0-1.5,0.1-2.1,0.4c-0.6,0.3-1,0.6-1.4,1.1c-0.3,0.5-0.6,1-0.7,1.6c-0.1,0.6-0.2,1.3-0.2,2v7.2h-4.4v-16.1H531.7z"/>
	</g>
</g>
</svg>
