<?xml version="1.0" encoding="utf-8"?>
<!-- Generator: Adobe Illustrator 17.0.2, SVG Export Plug-In . SVG Version: 6.00 Build 0)  -->
<!DOCTYPE svg PUBLIC "-//W3C//DTD SVG 1.1//EN" "http://www.w3.org/Graphics/SVG/1.1/DTD/svg11.dtd">
<svg version="1.1" id="Layer_1" xmlns="http://www.w3.org/2000/svg" xmlns:xlink="http://www.w3.org/1999/xlink" x="0px" y="0px"
	 width="210.354px" height="79.223px" viewBox="0 0 210.354 79.223" enable-background="new 0 0 210.354 79.223"
	 xml:space="preserve">
<g>
	<path fill="#FFFFFF" d="M17.459,79.223c-5.342,0-11.677-2.209-17.46-6.075l3.55-8.472c5.034,3.692,9.343,5.488,13.15,5.488
		c5.624,0,8.721-3.516,8.721-9.902c0-6.318-3.822-10.706-11.144-18.553C7.074,33.991,1.564,27.41,1.564,18.894
		c0-10.809,7.719-18.96,17.956-18.96c6.145,0,10.344,1.902,14.639,4.791l-3.647,8.664c-3.759-2.926-6.679-4.504-10.667-4.504
		c-4.957,0-8.287,3.764-8.287,9.367c0,5.56,4.034,9.946,10.606,16.635c8.594,9.036,13.251,15.637,13.251,24.628
		C35.415,71.118,28.031,79.223,17.459,79.223"/>
	<polygon fill="#FFFFFF" points="70.009,34.317 51.045,34.317 51.045,-0.067 40.866,-0.067 40.866,79.223 51.045,79.223 
		51.045,43.54 70.009,43.54 70.009,79.223 80.188,79.223 80.188,-0.067 70.009,-0.067 	"/>
	<path fill="#FFFFFF" d="M148.275-0.067c-4.569,0-8.376,0.107-11.916,0.634v78.656h10.098V51.608l0.788,0.087
		c0.959,0.105,1.822,0.105,2.914,0.105c15.721,0,22.882-13.5,22.882-26.043C173.04,9.587,163.781-0.067,148.275-0.067
		 M149.937,43.198c-1.033,0-1.95-0.113-2.836-0.222l-0.626-0.077l-0.018-0.644V9.144l0.649-0.058c0.4-0.036,0.676-0.072,0.921-0.104
		c0.509-0.066,0.911-0.118,1.91-0.118c7.954,0,12.895,6.557,12.895,17.113C162.831,36.76,158.01,43.198,149.937,43.198"/>
	<polygon fill="#FFFFFF" points="210.354,9.162 210.354,-0.067 179.165,-0.067 179.165,79.223 210.354,79.223 210.354,70.019 
		189.35,70.019 189.35,42.882 208.232,42.882 208.232,33.874 189.35,33.874 189.35,9.162 	"/>
	<polygon fill="#FFFFFF" points="102.493,0.01 112.067,0.01 128.124,79.189 118.991,79.189 107.363,13.849 97.337,79.189 
		87.761,79.189 	"/>
</g>
</svg>
